<?xml version="1.0" encoding="UTF-8" standalone="no"?>
<svg
   version="1.0"
   width="128.000000pt"
   height="128.000000pt"
   viewBox="0 0 128.000000 128.000000"
   preserveAspectRatio="xMidYMid meet"
   id="svg10"
   sodipodi:docname="pathfinder-icon.svg"
   inkscape:version="1.3.2 (091e20e, 2023-11-25, custom)"
   xmlns:inkscape="http://www.inkscape.org/namespaces/inkscape"
   xmlns:sodipodi="http://sodipodi.sourceforge.net/DTD/sodipodi-0.dtd"
   xmlns="http://www.w3.org/2000/svg"
   xmlns:svg="http://www.w3.org/2000/svg">
  <defs
     id="defs10" />
  <sodipodi:namedview
     id="namedview10"
     pagecolor="#ffffff"
     bordercolor="#000000"
     borderopacity="0.25"
     inkscape:showpageshadow="2"
     inkscape:pageopacity="0.0"
     inkscape:pagecheckerboard="0"
     inkscape:deskcolor="#d1d1d1"
     inkscape:document-units="pt"
     inkscape:zoom="10.880859"
     inkscape:cx="85.287381"
     inkscape:cy="88.549991"
     inkscape:window-width="3840"
     inkscape:window-height="2071"
     inkscape:window-x="-9"
     inkscape:window-y="-9"
     inkscape:window-maximized="1"
     inkscape:current-layer="svg10" />
  <metadata
     id="metadata1">
Created by potrace 1.10, written by Peter Selinger 2001-2011
</metadata>
  <g
     transform="matrix(0.14633745,0,0,-0.13175236,-34.070611,148.92271)"
     fill="#000000"
     stroke="none"
     id="g10">
    <path
       d="m 461,1112 c -19,-9 -43,-29 -54,-43 -24,-33 -33,-108 -17,-138 15,-29 9,-35 -23,-20 -33,15 -72,5 -103,-26 -23,-23 -24,-30 -24,-158 0,-133 0,-135 27,-161 24,-24 34,-27 75,-24 l 48,3 V 368 190 h -50 c -40,0 -54,5 -73,26 -27,29 -43,19 -33,-20 5,-21 13,-24 98,-32 92,-8 493,-9 638,-1 41,2 89,10 105,18 17,7 31,13 32,14 1,0 -3,21 -8,45 -9,39 -27,62 -132,168 L 845,530 788,469 730,408 v 49 c 0,62 -21,86 -95,109 -52,17 -55,19 -55,51 v 33 h 73 l 72,1 64,95 c 35,52 62,96 60,98 -2,2 -23,15 -46,30 l -42,26 -41,-60 c -38,-56 -43,-60 -79,-60 -37,0 -71,23 -71,47 0,6 18,29 40,51 36,36 40,44 40,91 0,42 3,51 18,51 19,0 42,18 42,33 0,5 -17,7 -37,5 -31,-4 -41,0 -57,20 -20,26 -73,52 -103,52 -10,0 -33,-8 -52,-18 z m 118,-49 c 19,-12 21,-17 10,-24 -8,-5 -24,-9 -35,-9 -12,0 -32,-8 -45,-18 -13,-11 -39,-24 -58,-30 l -33,-12 6,32 c 15,78 86,106 155,61 z m 31,-94 c 0,-65 -102,-121 -130,-70 -16,32 -12,50 15,57 14,3 25,10 25,15 0,8 50,26 78,28 7,1 12,-11 12,-30 z M 443,866 c -23,-13 -37,8 -22,33 l 14,21 11,-23 c 10,-18 10,-24 -3,-31 z m -75,-2 c 15,-11 22,-25 22,-50 0,-33 -1,-34 -43,-34 -48,0 -67,13 -67,46 0,22 33,54 55,54 6,0 21,-7 33,-16 z m 162,-74 c 64,-47 71,-50 129,-50 43,0 61,-4 61,-13 0,-26 -25,-37 -87,-37 -61,0 -66,2 -133,52 -64,48 -81,73 -63,91 12,13 26,7 93,-43 z m 263,44 c 3,-4 -6,-22 -20,-41 -33,-42 -54,-30 -27,16 18,30 34,38 47,25 z M 467,663 c -17,-18 -33,-33 -36,-33 -4,0 -6,26 -6,59 v 59 l 37,-27 37,-26 z m -79,0 -3,-78 h -39 c -49,0 -61,22 -14,27 43,4 45,31 3,38 -28,5 -30,8 -31,48 l -1,42 h 44 44 z m 151,-50 -3,-56 75,-26 74,-26 3,-47 c 2,-36 0,-48 -11,-48 -8,0 -21,-7 -28,-17 -12,-14 -15,-11 -19,28 -5,48 -5,48 -127,79 -36,9 -43,15 -43,35 0,16 -6,25 -15,25 -8,0 -15,3 -15,8 0,6 100,100 108,102 2,0 2,-25 1,-57 z M 461,470 c 6,0 8,-50 7,-122 -3,-101 -6,-123 -18,-123 -12,0 -16,23 -20,128 -4,103 -3,126 8,122 8,-3 18,-5 23,-5 z m 613,-257 c -6,-10 -25,-19 -42,-21 -24,-3 -35,3 -56,31 -28,37 -33,52 -13,41 7,-4 7,-2 -2,7 -10,11 -15,11 -18,2 -8,-23 -20,-14 -53,38 l -33,50 -28,-27 c -25,-24 -29,-25 -35,-11 -4,11 2,24 17,36 19,15 21,22 12,32 -9,9 -16,9 -26,1 -8,-7 -17,-9 -21,-5 -3,4 10,24 31,45 l 37,38 121,-120 C 1067,248 1083,227 1074,213 Z M 559,444 c 29,-6 31,-9 31,-54 0,-41 -5,-52 -40,-90 -22,-24 -41,-41 -43,-39 -6,11 5,189 12,189 5,0 23,-3 40,-6 z m 189,-60 c 12,-4 22,-12 22,-20 0,-24 -17,-24 -40,1 -24,26 -21,29 18,19 z m 19,-109 88,-85 h -65 c -62,0 -67,1 -83,30 -21,35 -28,37 -52,10 -10,-11 -22,-20 -27,-20 -16,0 -7,27 17,50 14,13 25,27 25,32 0,4 -11,8 -25,8 -14,0 -25,2 -25,5 0,5 51,54 57,55 1,0 42,-38 90,-85 z m 117,-14 c 36,-37 41,-61 12,-61 -17,0 -79,78 -71,90 10,16 19,12 59,-29 z m -274,20 c 0,-5 -4,-21 -10,-35 -6,-16 -6,-27 0,-31 26,-16 4,-25 -60,-25 -38,0 -70,3 -70,7 0,11 33,43 45,43 6,0 26,11 45,25 36,27 50,31 50,16 z"
       id="path1" />
    <path
       d="m 300,825 c 0,-12 8,-16 33,-13 17,2 32,8 32,13 0,6 -15,11 -32,13 -25,3 -33,-1 -33,-13 z"
       id="path2" />
    <path
       d="m 924,1100 c -12,-5 -27,-23 -33,-41 -10,-28 -7,-42 31,-128 22,-53 44,-99 47,-103 4,-4 26,36 49,90 39,91 41,99 30,136 -16,51 -66,70 -124,46 z m 74,-36 c 27,-19 28,-45 2,-69 -17,-15 -24,-16 -45,-7 -30,14 -35,65 -7,81 23,14 24,14 50,-5 z"
       id="path3" />
    <path
       d="m 773,1034 c -44,-19 -53,-28 -53,-49 0,-21 9,-29 57,-50 60,-27 95,-27 73,0 -6,8 -28,19 -48,26 -58,18 -58,25 3,53 31,14 54,30 50,36 -9,14 -23,12 -82,-16 z"
       id="path4" />
    <path
       d="m 1066,742 c -12,-14 -13,-21 -5,-29 12,-12 39,6 39,26 0,19 -17,20 -34,3 z"
       id="path5" />
    <path
       d="m 904,739 c -3,-6 -1,-16 5,-22 9,-9 14,-8 21,3 9,15 4,30 -10,30 -5,0 -12,-5 -16,-11 z"
       id="path6" />
    <path
       d="m 910,675 c -12,-14 -6,-35 10,-35 5,0 14,9 19,19 13,24 -12,37 -29,16 z"
       id="path7" />
    <path
       d="m 997,684 c -16,-16 -6,-34 19,-34 19,0 25,5 22,17 -3,19 -29,29 -41,17 z"
       id="path8" />
    <path
       d="m 841,626 c -17,-20 13,-43 34,-26 12,10 13,16 4,26 -6,8 -15,14 -19,14 -4,0 -13,-6 -19,-14 z"
       id="path9" />
    <path
       d="m 786,581 c -14,-15 -14,-20 -3,-30 11,-8 18,-7 31,8 14,15 14,20 3,30 -11,8 -18,7 -31,-8 z"
       id="path10" />
  </g>
</svg>
