<?xml version="1.0" standalone="no"?>
<!DOCTYPE svg PUBLIC "-//W3C//DTD SVG 20010904//EN"
 "http://www.w3.org/TR/2001/REC-SVG-20010904/DTD/svg10.dtd">
<svg version="1.0" xmlns="http://www.w3.org/2000/svg"
 width="128.000000pt" height="128.000000pt" viewBox="0 0 128.000000 128.000000"
 preserveAspectRatio="xMidYMid meet">
<metadata>
Created by potrace 1.10, written by Peter Selinger 2001-2011
</metadata>
<g transform="translate(0.000000,128.000000) scale(0.100000,-0.100000)"
fill="#000000" stroke="none">
<path d="M461 1112 c-19 -9 -43 -29 -54 -43 -24 -33 -33 -108 -17 -138 15 -29
9 -35 -23 -20 -33 15 -72 5 -103 -26 -23 -23 -24 -30 -24 -158 0 -133 0 -135
27 -161 24 -24 34 -27 75 -24 l48 3 0 -177 0 -178 -50 0 c-40 0 -54 5 -73 26
-27 29 -43 19 -33 -20 5 -21 13 -24 98 -32 92 -8 493 -9 638 -1 41 2 89 10
105 18 17 7 31 13 32 14 1 0 -3 21 -8 45 -9 39 -27 62 -132 168 l-122 122 -57
-61 -58 -61 0 49 c0 62 -21 86 -95 109 -52 17 -55 19 -55 51 l0 33 73 0 72 1
64 95 c35 52 62 96 60 98 -2 2 -23 15 -46 30 l-42 26 -41 -60 c-38 -56 -43
-60 -79 -60 -37 0 -71 23 -71 47 0 6 18 29 40 51 36 36 40 44 40 91 0 42 3 51
18 51 19 0 42 18 42 33 0 5 -17 7 -37 5 -31 -4 -41 0 -57 20 -20 26 -73 52
-103 52 -10 0 -33 -8 -52 -18z m118 -49 c19 -12 21 -17 10 -24 -8 -5 -24 -9
-35 -9 -12 0 -32 -8 -45 -18 -13 -11 -39 -24 -58 -30 l-33 -12 6 32 c15 78 86
106 155 61z m31 -94 c0 -65 -102 -121 -130 -70 -16 32 -12 50 15 57 14 3 25
10 25 15 0 8 50 26 78 28 7 1 12 -11 12 -30z m-167 -103 c-23 -13 -37 8 -22
33 l14 21 11 -23 c10 -18 10 -24 -3 -31z m-75 -2 c15 -11 22 -25 22 -50 0 -33
-1 -34 -43 -34 -48 0 -67 13 -67 46 0 22 33 54 55 54 6 0 21 -7 33 -16z m162
-74 c64 -47 71 -50 129 -50 43 0 61 -4 61 -13 0 -26 -25 -37 -87 -37 -61 0
-66 2 -133 52 -64 48 -81 73 -63 91 12 13 26 7 93 -43z m263 44 c3 -4 -6 -22
-20 -41 -33 -42 -54 -30 -27 16 18 30 34 38 47 25z m-326 -171 c-17 -18 -33
-33 -36 -33 -4 0 -6 26 -6 59 l0 59 37 -27 37 -26 -32 -32z m-79 0 l-3 -78
-39 0 c-49 0 -61 22 -14 27 43 4 45 31 3 38 -28 5 -30 8 -31 48 l-1 42 44 0
44 0 -3 -77z m151 -50 l-3 -56 75 -26 74 -26 3 -47 c2 -36 0 -48 -11 -48 -8 0
-21 -7 -28 -17 -12 -14 -15 -11 -19 28 -5 48 -5 48 -127 79 -36 9 -43 15 -43
35 0 16 -6 25 -15 25 -8 0 -15 3 -15 8 0 6 100 100 108 102 2 0 2 -25 1 -57z
m-78 -143 c6 0 8 -50 7 -122 -3 -101 -6 -123 -18 -123 -12 0 -16 23 -20 128
-4 103 -3 126 8 122 8 -3 18 -5 23 -5z m613 -257 c-6 -10 -25 -19 -42 -21 -24
-3 -35 3 -56 31 -28 37 -33 52 -13 41 7 -4 7 -2 -2 7 -10 11 -15 11 -18 2 -8
-23 -20 -14 -53 38 l-33 50 -28 -27 c-25 -24 -29 -25 -35 -11 -4 11 2 24 17
36 19 15 21 22 12 32 -9 9 -16 9 -26 1 -8 -7 -17 -9 -21 -5 -3 4 10 24 31 45
l37 38 121 -120 c102 -102 118 -123 109 -137z m-515 231 c29 -6 31 -9 31 -54
0 -41 -5 -52 -40 -90 -22 -24 -41 -41 -43 -39 -6 11 5 189 12 189 5 0 23 -3
40 -6z m189 -60 c12 -4 22 -12 22 -20 0 -24 -17 -24 -40 1 -24 26 -21 29 18
19z m19 -109 l88 -85 -65 0 c-62 0 -67 1 -83 30 -21 35 -28 37 -52 10 -10 -11
-22 -20 -27 -20 -16 0 -7 27 17 50 14 13 25 27 25 32 0 4 -11 8 -25 8 -14 0
-25 2 -25 5 0 5 51 54 57 55 1 0 42 -38 90 -85z m117 -14 c36 -37 41 -61 12
-61 -17 0 -79 78 -71 90 10 16 19 12 59 -29z m-274 20 c0 -5 -4 -21 -10 -35
-6 -16 -6 -27 0 -31 26 -16 4 -25 -60 -25 -38 0 -70 3 -70 7 0 11 33 43 45 43
6 0 26 11 45 25 36 27 50 31 50 16z"/>
<path d="M300 825 c0 -12 8 -16 33 -13 17 2 32 8 32 13 0 6 -15 11 -32 13 -25
3 -33 -1 -33 -13z"/>
<path d="M924 1100 c-12 -5 -27 -23 -33 -41 -10 -28 -7 -42 31 -128 22 -53 44
-99 47 -103 4 -4 26 36 49 90 39 91 41 99 30 136 -16 51 -66 70 -124 46z m74
-36 c27 -19 28 -45 2 -69 -17 -15 -24 -16 -45 -7 -30 14 -35 65 -7 81 23 14
24 14 50 -5z"/>
<path d="M773 1034 c-44 -19 -53 -28 -53 -49 0 -21 9 -29 57 -50 60 -27 95
-27 73 0 -6 8 -28 19 -48 26 -58 18 -58 25 3 53 31 14 54 30 50 36 -9 14 -23
12 -82 -16z"/>
<path d="M1066 742 c-12 -14 -13 -21 -5 -29 12 -12 39 6 39 26 0 19 -17 20
-34 3z"/>
<path d="M904 739 c-3 -6 -1 -16 5 -22 9 -9 14 -8 21 3 9 15 4 30 -10 30 -5 0
-12 -5 -16 -11z"/>
<path d="M910 675 c-12 -14 -6 -35 10 -35 5 0 14 9 19 19 13 24 -12 37 -29 16z"/>
<path d="M997 684 c-16 -16 -6 -34 19 -34 19 0 25 5 22 17 -3 19 -29 29 -41
17z"/>
<path d="M841 626 c-17 -20 13 -43 34 -26 12 10 13 16 4 26 -6 8 -15 14 -19
14 -4 0 -13 -6 -19 -14z"/>
<path d="M786 581 c-14 -15 -14 -20 -3 -30 11 -8 18 -7 31 8 14 15 14 20 3 30
-11 8 -18 7 -31 -8z"/>
</g>
</svg>
